<svg width="700" height="700" viewBox="0 0 700 700" fill="none" xmlns="http://www.w3.org/2000/svg">
<rect width="700" height="700" rx="350" fill="#FF3030"/>
<g filter="url(#filter0_if_9_125)">
<path d="M79.2116 509.197V221.491H150.175V250.069H116.459V480.298H150.175V509.197H79.2116Z" fill="#FAFAFA"/>
<path d="M175.095 457.5V445.94C175.095 436.307 176.808 427.531 180.233 419.61C183.658 411.69 188.368 404.411 194.361 397.775C200.355 391.139 206.991 384.824 214.27 378.83C221.548 372.836 229.04 367.057 236.747 361.491C245.523 354.855 253.765 348.326 261.471 341.904C269.392 335.482 275.814 328.631 280.738 321.353C285.661 313.861 288.123 305.619 288.123 296.628C288.123 292.347 287.053 288.066 284.912 283.784C282.771 279.503 279.346 275.971 274.637 273.188C270.141 270.191 264.04 268.693 256.334 268.693C248.413 268.693 241.884 270.084 236.747 272.867C231.609 275.436 227.649 279.182 224.866 284.105C222.297 288.815 221.013 294.702 221.013 301.766V313.326H177.985C177.771 312.255 177.557 310.757 177.343 308.83C177.129 306.904 177.022 304.549 177.022 301.766C177.022 286.139 180.554 273.295 187.618 263.234C194.897 253.173 204.637 245.68 216.838 240.757C229.254 235.833 243.276 233.372 258.903 233.372C273.031 233.372 284.805 235.405 294.224 239.472C303.857 243.326 311.563 248.57 317.343 255.206C323.123 261.628 327.19 268.693 329.545 276.399C332.114 283.891 333.398 291.17 333.398 298.234C333.398 308.295 331.579 317.5 327.939 325.849C324.3 334.197 319.377 342.011 313.169 349.289C306.961 356.567 299.575 363.631 291.013 370.482C282.45 377.118 273.352 383.754 263.719 390.39C258.796 393.815 254.086 397.133 249.591 400.344C245.309 403.555 241.563 406.659 238.352 409.656C235.355 412.439 233.001 415.222 231.288 418.005H335.004V457.5H175.095ZM382.11 457.5V421.537H434.771V291.491H381.789V264.518C388.853 263.876 396.988 262.271 406.193 259.702C415.612 256.919 425.031 253.601 434.45 249.748C443.869 245.68 452.324 241.399 459.817 236.904H479.725V421.537H528.853V457.5H382.11ZM620.914 221.491V509.197H549.951V480.619H583.666V250.39H549.951V221.491H620.914Z" fill="#18181B"/>
</g>
<defs>
<filter id="filter0_if_9_125" x="76.8034" y="219.083" width="550.532" height="296.537" filterUnits="userSpaceOnUse" color-interpolation-filters="sRGB">
<feFlood flood-opacity="0" result="BackgroundImageFix"/>
<feBlend mode="normal" in="SourceGraphic" in2="BackgroundImageFix" result="shape"/>
<feColorMatrix in="SourceAlpha" type="matrix" values="0 0 0 0 0 0 0 0 0 0 0 0 0 0 0 0 0 0 127 0" result="hardAlpha"/>
<feOffset dx="6.42202" dy="6.42202"/>
<feGaussianBlur stdDeviation="3.21101"/>
<feComposite in2="hardAlpha" operator="arithmetic" k2="-1" k3="1"/>
<feColorMatrix type="matrix" values="0 0 0 0 0 0 0 0 0 0 0 0 0 0 0 0 0 0 0.25 0"/>
<feBlend mode="normal" in2="shape" result="effect1_innerShadow_9_125"/>
<feGaussianBlur stdDeviation="1.20413" result="effect2_foregroundBlur_9_125"/>
</filter>
</defs>
</svg>
