<svg xmlns="http://www.w3.org/2000/svg" width="96" height="96" viewBox="0 0 96 96" fill="none">
  <path d="M48 10c10 14 18 24 18 36 0 10-8 18-18 18s-18-8-18-18c0-12 8-22 18-36Z" fill="#22D3EE" opacity="0.14"/>
  <path d="M48 10c10 14 18 24 18 36 0 10-8 18-18 18s-18-8-18-18c0-12 8-22 18-36Z" stroke="#FAFAFA" stroke-width="4"/>
  <path d="M26 82h44" stroke="#FAFAFA" stroke-width="4" stroke-linecap="round" opacity="0.25"/>
  <path d="M32 82v-8M48 82v-12M64 82v-8" stroke="#22D3EE" stroke-width="5" stroke-linecap="round"/>
</svg>
